<svg width="340" height="48" viewBox="0 0 340 48" fill="none" xmlns="http://www.w3.org/2000/svg">
<g filter="url(#filter0_d_1_1726)">
<rect x="292.5" y="0.5" width="47" height="47" rx="23.5" stroke="#666666"/>
</g>
<path d="M316 14C313.676 14.0082 311.427 14.826 309.64 16.3128C307.853 17.7995 306.64 19.8623 306.209 22.1466C305.778 24.4309 306.157 26.7939 307.279 28.8293C308.402 30.8648 310.198 32.4456 312.36 33.3C312.26 32.51 312.19 31.3 312.39 30.43L313.56 25.46C313.56 25.46 313.26 24.86 313.26 23.98C313.26 22.59 314.07 21.56 315.08 21.56C315.93 21.56 316.35 22.2 316.35 22.96C316.35 23.82 315.8 25.1 315.51 26.29C315.27 27.29 316.01 28.1 317 28.1C318.78 28.1 320.14 26.23 320.14 23.53C320.14 21.13 318.42 19.47 315.96 19.47C315.376 19.4443 314.792 19.5373 314.245 19.7434C313.697 19.9495 313.197 20.2644 312.775 20.669C312.352 21.0737 312.016 21.5598 311.787 22.0979C311.558 22.636 311.44 23.215 311.44 23.8C311.44 24.66 311.77 25.58 312.18 26.08C312.26 26.18 312.27 26.27 312.24 26.37L311.96 27.5C311.92 27.68 311.81 27.73 311.63 27.64C310.37 27.05 309.59 25.24 309.59 23.76C309.59 20.61 311.89 17.72 316.21 17.72C319.67 17.72 322.38 20.18 322.38 23.49C322.38 26.94 320.2 29.71 317.18 29.71C316.18 29.71 315.22 29.18 314.9 28.56L314.27 30.93C313.975 31.8577 313.558 32.7421 313.03 33.56C314.404 33.9816 315.853 34.1021 317.277 33.9133C318.702 33.7245 320.069 33.2309 321.286 32.4661C322.502 31.7014 323.54 30.6833 324.327 29.4814C325.115 28.2795 325.635 26.9219 325.85 25.5011C326.066 24.0804 325.973 22.6298 325.578 21.2482C325.182 19.8666 324.494 18.5865 323.559 17.4951C322.624 16.4036 321.465 15.5264 320.161 14.9233C318.856 14.3202 317.437 14.0053 316 14Z" fill="white"/>
<g filter="url(#filter1_d_1_1726)">
<rect x="219.5" y="0.5" width="47" height="47" rx="23.5" stroke="#666666"/>
</g>
<path d="M253 17.88C252.25 18.25 251.5 18.38 250.62 18.5C251.5 18 252.12 17.25 252.37 16.25C251.561 16.7313 250.674 17.0696 249.75 17.25C248.948 16.4623 247.874 16.0145 246.75 16C244.62 16 242.75 17.88 242.75 20.13C242.75 20.5 242.75 20.75 242.88 21C241.242 20.9382 239.636 20.5271 238.17 19.7941C236.704 19.0611 235.412 18.0232 234.38 16.75C234.008 17.3956 233.834 18.1363 233.88 18.88C233.892 19.552 234.068 20.2108 234.394 20.7984C234.72 21.3861 235.186 21.8846 235.75 22.25C235.12 22.25 234.5 22 233.87 21.75C233.87 23.75 235.25 25.38 237.12 25.75C236.75 25.88 236.37 25.88 236 25.88C235.75 25.88 235.5 25.88 235.25 25.75C235.75 27.38 237.25 28.63 239.13 28.63C237.678 29.7963 235.862 30.4156 234 30.38H233C234.875 31.5591 237.036 32.2056 239.25 32.25C246.75 32.25 250.88 26 250.88 20.62V20.12C251.739 19.5335 252.462 18.7697 253 17.88Z" fill="white"/>
<g filter="url(#filter2_d_1_1726)">
<rect x="146.5" y="0.5" width="47" height="47" rx="23.5" stroke="#666666"/>
</g>
<path d="M167.78 34L167.75 25.25H164V21.5H167.75V19C167.75 15.63 169.84 14 172.85 14C174.29 14 175.53 14.1 175.89 14.15V17.68H173.8C172.17 17.68 171.85 18.46 171.85 19.6V21.5H176.5L175.25 25.25H171.85V34H167.78Z" fill="white"/>
<g filter="url(#filter3_d_1_1726)">
<rect x="73.5" y="0.5" width="47" height="47" rx="23.5" stroke="#666666"/>
</g>
<path d="M98.0202 14C99.8202 14 100.2 14.02 101.12 14.06C102.18 14.11 102.91 14.28 103.54 14.53C104.2 14.78 104.76 15.13 105.31 15.68C105.87 16.23 106.21 16.79 106.47 17.45C106.72 18.08 106.88 18.81 106.93 19.88C106.98 20.83 106.99 21.2 106.99 23.2V24.8C106.99 26.8 106.98 27.17 106.93 28.12C106.914 28.9468 106.759 29.7651 106.47 30.54C106.21 31.2 105.87 31.76 105.32 32.31C104.76 32.87 104.2 33.21 103.54 33.47C102.91 33.72 102.18 33.88 101.12 33.93C100.17 33.98 99.7902 33.99 97.7902 33.99H96.2002C94.2002 33.99 93.8302 33.98 92.8702 33.93C92.0433 33.9141 91.2251 33.7586 90.4502 33.47C89.7838 33.2195 89.1798 32.8271 88.6802 32.32C88.168 31.8186 87.772 31.211 87.5202 30.54C87.2318 29.765 87.0763 28.9468 87.0602 28.12C87.0111 27.0874 86.9911 26.0537 87.0002 25.02V22.97C87.0002 21.17 87.0202 20.79 87.0602 19.87C87.1102 18.81 87.2802 18.08 87.5202 17.45C87.7802 16.79 88.1202 16.23 88.6802 15.68C89.1753 15.1674 89.7806 14.7742 90.4502 14.53C91.2246 14.2382 92.0428 14.0793 92.8702 14.06C93.7902 14.02 94.1702 14 95.9702 14H98.0202ZM98.0402 15.8H95.9502C94.2202 15.8 93.8502 15.82 92.9502 15.86C91.9802 15.9 91.4502 16.06 91.1002 16.2C90.6302 16.38 90.3002 16.6 89.9502 16.95C89.6002 17.3 89.3802 17.63 89.2002 18.1C89.0702 18.45 88.9002 18.98 88.8602 19.96C88.8202 20.86 88.8002 21.22 88.8002 22.96V25.04C88.8002 26.78 88.8202 27.14 88.8602 28.04C88.9002 29.01 89.0602 29.54 89.2002 29.89C89.3802 30.36 89.6002 30.69 89.9502 31.04C90.3002 31.39 90.6302 31.61 91.1002 31.79C91.4502 31.93 91.9802 32.09 92.9602 32.13C93.9302 32.18 94.2802 32.19 96.4402 32.19H97.5502C99.7202 32.19 100.06 32.18 101.04 32.13C102.01 32.09 102.54 31.93 102.89 31.79C103.36 31.61 103.69 31.39 104.04 31.04C104.39 30.69 104.61 30.36 104.79 29.89C104.93 29.54 105.09 29.01 105.13 28.04C105.18 27.06 105.19 26.72 105.19 24.55V23.45C105.19 21.28 105.18 20.93 105.13 19.95C105.09 18.98 104.93 18.45 104.79 18.1C104.629 17.6654 104.373 17.2725 104.04 16.95C103.718 16.6169 103.325 16.3606 102.89 16.2C102.297 15.9832 101.672 15.8682 101.04 15.86C100.041 15.8123 99.0405 15.7923 98.0402 15.8ZM97.0002 18.86C98.362 18.86 99.6681 19.401 100.631 20.364C101.594 21.327 102.135 22.6331 102.135 23.995C102.135 25.3569 101.594 26.663 100.631 27.626C99.6681 28.589 98.362 29.13 97.0002 29.13C95.6383 29.13 94.3322 28.589 93.3692 27.626C92.4062 26.663 91.8652 25.3569 91.8652 23.995C91.8652 22.6331 92.4062 21.327 93.3692 20.364C94.3322 19.401 95.6383 18.86 97.0002 18.86ZM97.0002 20.66C96.1157 20.66 95.2674 21.0114 94.642 21.6368C94.0165 22.2622 93.6652 23.1105 93.6652 23.995C93.6652 24.8795 94.0165 25.7278 94.642 26.3532C95.2674 26.9786 96.1157 27.33 97.0002 27.33C97.8847 27.33 98.7329 26.9786 99.3584 26.3532C99.9838 25.7278 100.335 24.8795 100.335 23.995C100.335 23.1105 99.9838 22.2622 99.3584 21.6368C98.7329 21.0114 97.8847 20.66 97.0002 20.66ZM102.33 17.46C102.648 17.46 102.954 17.5864 103.179 17.8115C103.404 18.0365 103.53 18.3417 103.53 18.66C103.53 18.9783 103.404 19.2835 103.179 19.5085C102.954 19.7336 102.648 19.86 102.33 19.86C102.012 19.86 101.707 19.7336 101.482 19.5085C101.257 19.2835 101.13 18.9783 101.13 18.66C101.13 18.3417 101.257 18.0365 101.482 17.8115C101.707 17.5864 102.012 17.46 102.33 17.46Z" fill="white"/>
<g filter="url(#filter4_d_1_1726)">
<rect x="0.5" y="0.5" width="47" height="47" rx="23.5" stroke="#666666"/>
</g>
<path d="M22.03 27.38V20.62L27.97 24L22.03 27.38ZM35.23 18.5C35.1026 18.0177 34.8508 17.5773 34.4998 17.2229C34.1488 16.8684 33.711 16.6122 33.23 16.48C31.46 16 24.35 16 24.35 16C24.35 16 17.25 16 15.48 16.48C14.999 16.6122 14.5612 16.8684 14.2102 17.2229C13.8592 17.5773 13.6074 18.0177 13.48 18.5C13 20.28 13 24 13 24C13 24 13 27.72 13.47 29.5C13.5983 29.9835 13.8516 30.4247 14.2044 30.7793C14.5572 31.1338 14.9972 31.3893 15.48 31.52C17.25 32 24.36 32 24.36 32C24.36 32 31.46 32 33.23 31.52C33.711 31.3878 34.1488 31.1316 34.4998 30.7771C34.8508 30.4227 35.1026 29.9823 35.23 29.5C35.71 27.72 35.71 24 35.71 24C35.71 24 35.71 20.28 35.24 18.5H35.23Z" fill="white"/>
<defs>
<filter id="filter0_d_1_1726" x="292" y="0" width="48" height="48" filterUnits="userSpaceOnUse" color-interpolation-filters="sRGB">
<feFlood flood-opacity="0" result="BackgroundImageFix"/>
<feColorMatrix in="SourceAlpha" type="matrix" values="0 0 0 0 0 0 0 0 0 0 0 0 0 0 0 0 0 0 127 0" result="hardAlpha"/>
<feOffset/>
<feColorMatrix type="matrix" values="0 0 0 0 0.4 0 0 0 0 0.4 0 0 0 0 0.4 0 0 0 1 0"/>
<feBlend mode="normal" in2="BackgroundImageFix" result="effect1_dropShadow_1_1726"/>
<feBlend mode="normal" in="SourceGraphic" in2="effect1_dropShadow_1_1726" result="shape"/>
</filter>
<filter id="filter1_d_1_1726" x="219" y="0" width="48" height="48" filterUnits="userSpaceOnUse" color-interpolation-filters="sRGB">
<feFlood flood-opacity="0" result="BackgroundImageFix"/>
<feColorMatrix in="SourceAlpha" type="matrix" values="0 0 0 0 0 0 0 0 0 0 0 0 0 0 0 0 0 0 127 0" result="hardAlpha"/>
<feOffset/>
<feColorMatrix type="matrix" values="0 0 0 0 0.4 0 0 0 0 0.4 0 0 0 0 0.4 0 0 0 1 0"/>
<feBlend mode="normal" in2="BackgroundImageFix" result="effect1_dropShadow_1_1726"/>
<feBlend mode="normal" in="SourceGraphic" in2="effect1_dropShadow_1_1726" result="shape"/>
</filter>
<filter id="filter2_d_1_1726" x="146" y="0" width="48" height="48" filterUnits="userSpaceOnUse" color-interpolation-filters="sRGB">
<feFlood flood-opacity="0" result="BackgroundImageFix"/>
<feColorMatrix in="SourceAlpha" type="matrix" values="0 0 0 0 0 0 0 0 0 0 0 0 0 0 0 0 0 0 127 0" result="hardAlpha"/>
<feOffset/>
<feColorMatrix type="matrix" values="0 0 0 0 0.4 0 0 0 0 0.4 0 0 0 0 0.4 0 0 0 1 0"/>
<feBlend mode="normal" in2="BackgroundImageFix" result="effect1_dropShadow_1_1726"/>
<feBlend mode="normal" in="SourceGraphic" in2="effect1_dropShadow_1_1726" result="shape"/>
</filter>
<filter id="filter3_d_1_1726" x="73" y="0" width="48" height="48" filterUnits="userSpaceOnUse" color-interpolation-filters="sRGB">
<feFlood flood-opacity="0" result="BackgroundImageFix"/>
<feColorMatrix in="SourceAlpha" type="matrix" values="0 0 0 0 0 0 0 0 0 0 0 0 0 0 0 0 0 0 127 0" result="hardAlpha"/>
<feOffset/>
<feColorMatrix type="matrix" values="0 0 0 0 0.4 0 0 0 0 0.4 0 0 0 0 0.4 0 0 0 1 0"/>
<feBlend mode="normal" in2="BackgroundImageFix" result="effect1_dropShadow_1_1726"/>
<feBlend mode="normal" in="SourceGraphic" in2="effect1_dropShadow_1_1726" result="shape"/>
</filter>
<filter id="filter4_d_1_1726" x="0" y="0" width="48" height="48" filterUnits="userSpaceOnUse" color-interpolation-filters="sRGB">
<feFlood flood-opacity="0" result="BackgroundImageFix"/>
<feColorMatrix in="SourceAlpha" type="matrix" values="0 0 0 0 0 0 0 0 0 0 0 0 0 0 0 0 0 0 127 0" result="hardAlpha"/>
<feOffset/>
<feColorMatrix type="matrix" values="0 0 0 0 0.4 0 0 0 0 0.4 0 0 0 0 0.4 0 0 0 1 0"/>
<feBlend mode="normal" in2="BackgroundImageFix" result="effect1_dropShadow_1_1726"/>
<feBlend mode="normal" in="SourceGraphic" in2="effect1_dropShadow_1_1726" result="shape"/>
</filter>
</defs>
</svg>
